<svg width="92" height="92" viewBox="0 0 92 92" fill="none" xmlns="http://www.w3.org/2000/svg">
<rect width="92" height="92" rx="25" fill="#DAFFE0"/>
<mask id="mask0_1_86" style="mask-type:alpha" maskUnits="userSpaceOnUse" x="14" y="16" width="56" height="56">
<rect x="14" y="16" width="56" height="56" fill="#C4C4C4"/>
</mask>
<g mask="url(#mask0_1_86)">
</g>
<g clip-path="url(#clip0_1_86)">
<path d="M69.1685 28.4413C68.4956 27.6424 67.5106 27.1842 66.4659 27.1842H63.9587C62.8456 25.2247 60.764 23.994 58.4705 23.994H57.9519V20.179C57.9519 19.5749 57.4622 19.0852 56.8581 19.0852C52.7812 19.0852 49.4642 22.4021 49.4642 26.4791V29.897C49.4642 32.2758 48.151 34.4313 46.0369 35.5221L42.4658 37.3648C41.929 37.6418 41.7183 38.3014 41.9953 38.8383C42.1894 39.2146 42.5718 39.4308 42.9682 39.4308C43.1371 39.4308 43.3085 39.3916 43.4688 39.3088L47.0399 37.4661C49.8847 35.9983 51.6517 33.098 51.6517 29.8971V26.479C51.6517 23.9834 53.4171 21.8921 55.7644 21.3882V25.0878C55.7644 25.6918 56.2542 26.1815 56.8581 26.1815H58.4705C60.1334 26.1815 61.626 27.1715 62.2729 28.7035C62.444 29.1085 62.8408 29.3718 63.2805 29.3718H66.4659C66.8639 29.3718 67.2391 29.5463 67.4955 29.8507C67.7519 30.1551 67.8602 30.5546 67.7926 30.9468L67.3878 33.2949C67.1308 34.7842 65.8476 35.8651 64.3364 35.8651H59.467C59.4555 35.8651 59.4445 35.8664 59.4331 35.8668C59.4217 35.8665 59.4107 35.8651 59.3992 35.8651C58.7952 35.8651 58.3054 36.3548 58.3054 36.9589V42.3068C58.3054 46.1756 57.5586 49.9478 56.0858 53.5186C55.9951 53.7385 55.9787 53.9821 56.0387 54.2124L58.729 64.5011C58.7761 64.6808 58.8679 64.8455 58.9962 64.9799L59.9575 65.9865C60.1313 66.1686 60.0861 66.3624 60.0435 66.4616C60.001 66.5609 59.8921 66.7276 59.6405 66.7276H55.9967L51.2962 54.5484V49.4904C51.2962 48.8863 50.8064 48.3966 50.2024 48.3966C49.5983 48.3966 49.1087 48.8863 49.1087 49.4904V54.7521C49.1087 54.8868 49.1335 55.0203 49.182 55.146L53.652 66.7274H49.8044C49.2764 63.3056 46.3117 60.6774 42.7445 60.6774H41.51L41.0217 57.7803C40.4999 54.684 38.178 52.2623 35.1062 51.6108L33.0373 51.172C32.4469 51.0468 31.8658 51.4241 31.7404 52.015C31.6151 52.6059 31.9925 53.1865 32.5835 53.3119L34.6524 53.7507C36.8396 54.2145 38.493 55.939 38.8645 58.1438L39.2915 60.6773H32.5525C31.9486 60.6773 31.4588 61.167 31.4588 61.7711C31.4588 62.3752 31.9486 62.8649 32.5525 62.8649H42.7445C45.1017 62.8649 47.0797 64.5188 47.5789 66.7272H32.3738C26.9017 66.7272 22.4498 62.2753 22.4498 56.8032C22.4498 52.7018 24.714 48.9856 28.3588 47.105L34.7232 43.8211C35.2599 43.5442 35.4706 42.8844 35.1936 42.3476C34.9167 41.8108 34.2566 41.6 33.7201 41.8772L27.3558 45.1611C25.6097 46.062 24.1286 47.3146 22.9779 48.8066C22.857 48.2332 22.7956 47.6453 22.7956 47.0456C22.7956 43.9916 24.4503 41.161 27.1139 39.6584C27.8355 39.2514 28.1778 38.436 27.966 37.6292C27.743 36.7799 26.9801 36.1858 26.1077 36.179C26.1026 36.1789 26.0978 36.1782 26.0928 36.1782C26.0896 36.1782 26.0863 36.1782 26.0831 36.1784C26.0818 36.1784 26.0805 36.1786 26.0792 36.1786C19.5485 36.1858 14.132 41.5646 14.0023 48.1751C13.9117 52.7878 16.4532 57.0854 20.5085 59.2399C21.6393 64.7543 26.5299 68.9148 32.3738 68.9148H59.6406C60.7094 68.9148 61.6344 68.3043 62.0547 67.3217C62.4751 66.3391 62.2777 65.2485 61.5395 64.4754L60.7737 63.6736L58.2469 54.0101C59.7374 50.2751 60.4928 46.3396 60.4928 42.3067V38.0525H64.3364C66.9153 38.0525 69.1052 36.2079 69.5433 33.6664L69.9481 31.3182C70.1258 30.2888 69.8416 29.2402 69.1685 28.4413ZM16.1895 48.2181C16.2887 43.1632 20.1414 38.9853 24.9901 38.4289C22.2603 40.4225 20.6083 43.6224 20.6083 47.0456C20.6083 48.5198 20.9016 49.9393 21.4799 51.2736C20.7312 52.8859 20.3085 54.6613 20.2674 56.5076C17.6834 54.5896 16.125 51.501 16.1895 48.2181Z" fill="#2A5A32"/>
<path d="M59.5779 30.6704C59.7812 30.4669 59.8984 30.1848 59.8984 29.8971C59.8984 29.6094 59.7813 29.3273 59.5779 29.1238C59.3745 28.9204 59.0922 28.8033 58.8046 28.8033C58.5159 28.8033 58.2348 28.9204 58.0313 29.1238C57.8269 29.3273 57.7109 29.6094 57.7109 29.8971C57.7109 30.1848 57.8269 30.4669 58.0313 30.6704C58.2348 30.8738 58.517 30.9908 58.8046 30.9908C59.0922 30.9908 59.3734 30.8738 59.5779 30.6704Z" fill="#2A5A32"/>
<path d="M38.594 41.6867C38.8818 41.6867 39.1627 41.5707 39.3673 41.3673C39.5707 41.1627 39.6877 40.8817 39.6877 40.594C39.6877 40.3063 39.5708 40.0242 39.3673 39.8196C39.1638 39.6162 38.8818 39.5002 38.594 39.5002C38.3052 39.5002 38.0231 39.6162 37.8197 39.8196C37.6163 40.0231 37.5002 40.3052 37.5002 40.594C37.5002 40.8817 37.6163 41.1638 37.8197 41.3673C38.0232 41.5707 38.3054 41.6867 38.594 41.6867Z" fill="#2A5A32"/>
</g>
<defs>
<clipPath id="clip0_1_86">
<rect width="56" height="56" fill="white" transform="translate(14 16)"/>
</clipPath>
</defs>
</svg>
