<svg width="92" height="92" viewBox="0 0 92 92" fill="none" xmlns="http://www.w3.org/2000/svg">
<rect width="92" height="92" rx="25" fill="#FFF0DA"/>
<mask id="mask0_1_99" style="mask-type:alpha" maskUnits="userSpaceOnUse" x="14" y="16" width="56" height="56">
<rect x="14" y="16" width="56" height="56" fill="#C4C4C4"/>
</mask>
<g mask="url(#mask0_1_99)">
</g>
<g clip-path="url(#clip0_1_99)">
<path d="M42.5117 64.4258H48.4883C49.0383 64.4258 49.4844 63.9798 49.4844 63.4297V58.4492H54.4648C55.0149 58.4492 55.4609 58.0033 55.4609 57.4531V51.4766C55.4609 50.9264 55.0149 50.4805 54.4648 50.4805H49.4844V45.5C49.4844 44.9499 49.0383 44.5039 48.4883 44.5039H42.5117C41.9616 44.5039 41.5156 44.9499 41.5156 45.5V50.4805H36.5352C35.985 50.4805 35.5391 50.9264 35.5391 51.4766V57.4531C35.5391 58.0033 35.985 58.4492 36.5352 58.4492H41.5156V63.4297C41.5156 63.9798 41.9616 64.4258 42.5117 64.4258ZM37.5312 56.457V52.4727H42.5117C43.0619 52.4727 43.5078 52.0267 43.5078 51.4766V46.4961H47.4922V51.4766C47.4922 52.0267 47.9382 52.4727 48.4883 52.4727H53.4688V56.457H48.4883C47.9382 56.457 47.4922 56.903 47.4922 57.4531V62.4336H43.5078V57.4531C43.5078 56.903 43.0619 56.457 42.5117 56.457H37.5312Z" fill="#7C6645"/>
<path d="M45.5 71C46.0501 71 46.4961 70.554 46.4961 70.0039C46.4961 69.4538 46.0501 69.0078 45.5 69.0078C44.9499 69.0078 44.5039 69.4538 44.5039 70.0039C44.5039 70.554 44.9499 71 45.5 71Z" fill="#7C6645"/>
<path d="M23.9844 71H41.0176C41.5677 71 42.0137 70.5541 42.0137 70.0039C42.0137 69.4538 41.5677 69.0078 41.0176 69.0078H23.9844C22.8859 69.0078 21.9922 68.1141 21.9922 67.0156V40.5195H25.9766V45.5C25.9766 46.0501 26.4225 46.4961 26.9727 46.4961H32.9492C33.4994 46.4961 33.9453 46.0501 33.9453 45.5V40.5195H57.0547V45.5C57.0547 46.0501 57.5007 46.4961 58.0508 46.4961H64.0273C64.5774 46.4961 65.0234 46.0501 65.0234 45.5V40.5195H69.0078V67.0156C69.0078 68.1141 68.1141 69.0078 67.0156 69.0078H49.9824C49.4324 69.0078 48.9863 69.4538 48.9863 70.0039C48.9863 70.5541 49.4324 71 49.9824 71H67.0156C69.2126 71 71 69.2126 71 67.0156V33.5469C71 31.3499 69.2126 29.5625 67.0156 29.5625H58.4492V23.9844C58.4492 21.7874 56.6618 20 54.4648 20H36.5352C34.3382 20 32.5508 21.7874 32.5508 23.9844V29.5625H23.9844C21.7874 29.5625 20 31.3499 20 33.5469V67.0156C20 69.2126 21.7874 71 23.9844 71ZM31.9531 44.5039H27.9688V40.5195H31.9531V44.5039ZM63.0312 44.5039H59.0469V40.5195H63.0312V44.5039ZM34.543 23.9844C34.543 22.8859 35.4367 21.9922 36.5352 21.9922H54.4648C55.5633 21.9922 56.457 22.8859 56.457 23.9844V29.5625H34.543V23.9844ZM23.9844 31.5547H67.0156C68.1141 31.5547 69.0078 32.4484 69.0078 33.5469V38.5273H21.9922V33.5469C21.9922 32.4484 22.8859 31.5547 23.9844 31.5547Z" fill="#7C6645"/>
</g>
<defs>
<clipPath id="clip0_1_99">
<rect width="51" height="51" fill="white" transform="translate(20 20)"/>
</clipPath>
</defs>
</svg>
