<svg width="92" height="92" viewBox="0 0 92 92" fill="none" xmlns="http://www.w3.org/2000/svg">
<rect width="92" height="92" rx="25" fill="#F2DCFF"/>
<mask id="mask0_1_111" style="mask-type:alpha" maskUnits="userSpaceOnUse" x="14" y="16" width="56" height="56">
<rect x="14" y="16" width="56" height="56" fill="#C4C4C4"/>
</mask>
<g mask="url(#mask0_1_111)">
</g>
<path d="M67.5069 28.9476C67.317 28.7577 67.0559 28.6499 66.7887 28.6499C66.5206 28.6499 66.2596 28.7577 66.0696 28.9476C65.8808 29.1364 65.773 29.3975 65.773 29.6656C65.773 29.9327 65.8808 30.1949 66.0696 30.3838C66.2595 30.5727 66.5205 30.6814 66.7887 30.6814C67.0558 30.6814 67.317 30.5728 67.5069 30.3838C67.6958 30.1949 67.8034 29.9328 67.8034 29.6656C67.8034 29.3975 67.6958 29.1364 67.5069 28.9476Z" fill="#4E325F"/>
<path d="M44.1791 52.8684C43.9893 52.6784 43.7282 52.5707 43.4609 52.5707C43.1928 52.5707 42.9317 52.6784 42.7418 52.8684C42.553 53.0572 42.4452 53.3183 42.4452 53.5864C42.4452 53.8535 42.553 54.1155 42.7418 54.3046C42.9317 54.4935 43.1927 54.6021 43.4609 54.6021C43.7281 54.6021 43.9892 54.4936 44.1791 54.3046C44.368 54.1156 44.4757 53.8536 44.4757 53.5864C44.4758 53.3183 44.3681 53.0572 44.1791 52.8684Z" fill="#4E325F"/>
<path d="M69.967 32.3208C69.6898 31.8331 69.0694 31.6627 68.582 31.94C68.0944 32.2172 67.9239 32.8374 68.2013 33.325C71.2183 38.6304 70.3075 45.3538 65.9862 49.675L65.216 50.4452C65.03 49.957 64.7417 49.499 64.349 49.1064L53.9128 38.6703C54.5953 38.3346 55.2259 37.8866 55.7796 37.3329L57.7812 35.3312C58.1778 34.9346 58.1778 34.2915 57.7812 33.8949C57.3844 33.4982 56.7415 33.4982 56.3447 33.8949L54.3431 35.8965C53.4027 36.8368 52.1526 37.3547 50.8228 37.3547H46.8215C46.5522 37.3547 46.2939 37.4617 46.1033 37.6522L43.0402 40.7153C42.1306 41.625 40.6505 41.625 39.7409 40.7153C38.8312 39.8057 38.8312 38.3256 39.7409 37.416L46.7341 30.4229C51.0077 26.1492 57.6797 25.2093 62.9584 28.1374C63.4489 28.4093 64.0673 28.2324 64.3393 27.7418C64.6114 27.2512 64.4343 26.6329 63.9438 26.3608C61.0322 24.7461 57.6018 24.0999 54.2839 24.5418C51.179 24.9552 48.337 26.2553 46.0073 28.3183C43.1454 25.7811 39.502 24.3937 35.6447 24.3937C31.4658 24.3937 27.5372 26.021 24.5822 28.9759C21.6272 31.9307 20 35.8597 20 40.0385C20 44.2174 21.6273 48.146 24.5822 51.101L24.965 51.4837C25.0316 51.5503 25.1055 51.6047 25.1836 51.6489C25.2516 52.5276 25.6198 53.3872 26.2904 54.0578C27.0368 54.804 28.0166 55.177 28.9968 55.177C29.0477 55.177 29.0987 55.1753 29.1496 55.1733C29.1475 55.2247 29.1458 55.2761 29.1458 55.3278C29.1458 56.3501 29.5439 57.3113 30.2669 58.0342C31.0132 58.7805 31.9931 59.1536 32.9733 59.1535C33.0242 59.1535 33.0752 59.1518 33.126 59.1498C33.124 59.2012 33.1223 59.2526 33.1223 59.3043C33.1223 60.3266 33.5204 61.2878 34.2434 62.0107C34.9897 62.7569 35.9698 63.1299 36.9499 63.1299C37.0014 63.1299 37.0529 63.1283 37.1043 63.1263C37.0631 64.1572 37.4345 65.2019 38.2199 65.9874C38.9429 66.7103 39.9041 67.1084 40.9263 67.1084C41.9488 67.1084 42.91 66.7103 43.6328 65.9874L45.0523 64.5677L46.9697 66.4849C47.6926 67.208 48.6538 67.6061 49.6762 67.6061C50.6985 67.6061 51.6597 67.208 52.3826 66.485C53.1774 65.6902 53.5487 64.6298 53.4969 63.5868C53.5607 63.5899 53.6247 63.5917 53.6886 63.5917C54.6688 63.5917 55.649 63.2187 56.3952 62.4724C57.1802 61.6874 57.5516 60.6436 57.5108 59.6131C57.5622 59.6152 57.6136 59.6169 57.6653 59.6169C58.6876 59.6169 59.6488 59.2188 60.3717 58.4958C61.1567 57.7109 61.5281 56.667 61.4873 55.6365C61.5387 55.6386 61.59 55.6403 61.6417 55.6403C62.6641 55.6403 63.6253 55.2422 64.3482 54.5193C64.7153 54.1521 64.9918 53.728 65.1783 53.2753C65.2771 53.2272 65.37 53.1631 65.4522 53.081L67.4219 51.1113C72.3884 46.1458 73.4347 38.4188 69.967 32.3208ZM28.9969 53.1473C28.5171 53.1473 28.0661 52.9606 27.7268 52.6213C27.3876 52.282 27.2007 51.831 27.2007 51.3512C27.2007 50.8715 27.3875 50.4204 27.7268 50.0812L29.4771 48.3308C29.8163 47.9915 30.2675 47.8048 30.7472 47.8048C31.2269 47.8048 31.6781 47.9915 32.0173 48.3308C32.7177 49.0312 32.7177 50.1706 32.0173 50.8709L30.267 52.6214C29.9277 52.9605 29.4768 53.1473 28.9969 53.1473ZM31.7036 56.5979C31.3642 56.2587 31.1775 55.8076 31.1775 55.3279C31.1775 54.8481 31.3642 54.3971 31.7036 54.0579L33.454 52.3074C33.454 52.3074 33.454 52.3074 33.454 52.3073C33.7932 51.9681 34.2442 51.7812 34.724 51.7812C35.2037 51.7812 35.6548 51.968 35.9941 52.3073C36.6944 53.0077 36.6944 54.1471 35.9941 54.8474L34.2437 56.5978C33.5433 57.2981 32.4035 57.2981 31.7036 56.5979ZM35.68 60.5744C35.3407 60.2352 35.1539 59.7841 35.1539 59.3044C35.1539 58.8246 35.3407 58.3736 35.68 58.0343L37.4305 56.2839C37.4305 56.2839 37.4305 56.2839 37.4305 56.2838C37.7697 55.9446 38.2207 55.7577 38.7005 55.7577C39.1803 55.7577 39.6313 55.9445 39.9705 56.2838C40.6709 56.9843 40.6709 58.1237 39.9705 58.824L38.2201 60.5744C37.5198 61.2748 36.3804 61.2748 35.68 60.5744ZM43.9471 62.8007L42.1967 64.5512C41.8575 64.8904 41.4064 65.0773 40.9266 65.0773C40.447 65.0773 39.9958 64.8905 39.6566 64.5512C38.9562 63.8507 38.9562 62.7113 39.6566 62.011L41.407 60.2606C41.407 60.2606 41.407 60.2606 41.407 60.2605C41.7463 59.9213 42.1973 59.7344 42.6771 59.7344C43.1568 59.7344 43.6079 59.9212 43.9471 60.2605C44.2864 60.5997 44.4732 61.0508 44.4732 61.5305C44.4733 62.0105 44.2864 62.4614 43.9471 62.8007ZM62.9125 53.0829C62.5733 53.4222 62.1221 53.609 61.6425 53.609C61.1627 53.609 60.7116 53.4222 60.3724 53.0829L56.1447 48.8551C56.1445 48.8549 56.1444 48.8548 56.1442 48.8546L52.168 44.8784C51.7713 44.4818 51.1283 44.4818 50.7315 44.8784C50.3349 45.275 50.3349 45.9182 50.7315 46.3148L58.9359 54.5191C59.6363 55.2195 59.6363 56.359 58.9359 57.0592C58.5967 57.3986 58.1456 57.5853 57.6659 57.5853C57.1861 57.5853 56.7351 57.3986 56.3958 57.0592L48.1914 48.8549C47.7947 48.4584 47.1517 48.4584 46.7549 48.8549C46.3583 49.2515 46.3583 49.8947 46.7549 50.2914L50.7307 54.2671C50.731 54.2674 50.7313 54.2678 50.7316 54.2681L54.9594 58.4957C55.6598 59.1962 55.6598 60.3357 54.9595 61.036C54.2591 61.7364 53.1194 61.7364 52.4194 61.036L48.1915 56.8082C48.1133 56.7301 48.0255 56.6679 47.9319 56.6206L46.7261 55.4147C46.3294 55.0182 45.6864 55.0182 45.2896 55.4147C44.893 55.8113 44.893 56.4545 45.2896 56.8512L50.9468 62.5083C51.6472 63.2087 51.6472 64.3482 50.9468 65.0484C50.6076 65.3878 50.1564 65.5745 49.6768 65.5745C49.197 65.5745 48.7459 65.3878 48.4067 65.0484L46.254 62.8958C46.418 62.4655 46.5048 62.0047 46.5048 61.5304C46.5048 60.5081 46.1066 59.5469 45.3837 58.824C44.6607 58.1011 43.6995 57.7029 42.6773 57.7029C42.6256 57.7029 42.5742 57.7047 42.5228 57.7067C42.5635 56.6762 42.1922 55.6324 41.4072 54.8474C40.6842 54.1245 39.723 53.7264 38.7008 53.7264C38.6491 53.7264 38.5977 53.7281 38.5463 53.7301C38.5872 52.6997 38.2157 51.6558 37.4308 50.8708C36.7077 50.1479 35.7466 49.7498 34.7243 49.7498C34.6726 49.7498 34.6212 49.7515 34.5699 49.7535C34.6107 48.7231 34.2393 47.6792 33.4543 46.8942C31.9619 45.4019 29.5335 45.402 28.0411 46.8942L26.2908 48.6446C26.07 48.8654 25.8828 49.107 25.7272 49.3627C23.3414 46.8286 22.0319 43.5343 22.0319 40.0383C22.0319 36.402 23.4478 32.9833 26.0192 30.4122C28.5904 27.841 32.0092 26.4249 35.6453 26.4249C38.9497 26.4249 42.0744 27.5945 44.5466 29.7377L38.3049 35.9794C37.4806 36.8038 37.0266 37.8998 37.0266 39.0655C37.0266 40.2313 37.4806 41.3273 38.3049 42.1517C39.1558 43.0025 40.2735 43.4279 41.3911 43.4279C42.5087 43.4279 43.6264 43.0026 44.4773 42.1517L47.243 39.3859H50.8234C51.1191 39.3859 51.4115 39.3657 51.7003 39.3299L62.9131 50.5425C63.6128 51.2432 63.6128 52.3827 62.9125 53.0829Z" fill="#4E325F"/>
</svg>
