<svg width="39" height="24" viewBox="0 0 39 24" fill="none" xmlns="http://www.w3.org/2000/svg">
<path d="M27 11L31 15L38 8" stroke="#32B71D"/>
<g clip-path="url(#clip0_1_169)">
<path d="M23.4504 1.3937C22.718 0.66068 21.5316 0.660304 20.7987 1.39384L16.5661 5.63422C15.2947 4.67916 13.4611 4.76203 12.2811 5.94265L8.60309 9.62021C8.33567 9.55121 8.06038 9.51596 7.78115 9.51596C6.12626 9.51596 4.75364 10.7473 4.53141 12.342C4.44348 12.333 4.35479 12.3284 4.26559 12.3284C2.84404 12.3284 1.68751 13.4849 1.68751 14.9065C1.68751 14.9851 1.69131 15.0632 1.69829 15.1409H0.468735C0.316254 15.1409 0.173334 15.215 0.0854922 15.3397C-0.00230306 15.4643 -0.0240058 15.6239 0.0273683 15.7674L2.55857 22.8454C2.62527 23.0319 2.8019 23.1563 2.99994 23.1563H6.37488C6.63372 23.1563 6.84362 22.9465 6.84362 22.6876C6.84362 22.1707 7.26418 21.7501 7.7811 21.7501H9.89049C10.1493 21.7501 10.3592 21.5403 10.3592 21.2814C10.3592 21.0225 10.1493 20.8126 9.89049 20.8126H7.7811C6.90906 20.8126 6.17412 21.4111 5.96548 22.2189H3.33012L1.13416 16.0783H22.8653L20.6694 22.2189H18.034C17.8254 21.4111 17.0905 20.8126 16.2184 20.8126H14.1091C13.8503 20.8126 13.6404 21.0225 13.6404 21.2814C13.6404 21.5403 13.8503 21.7501 14.1091 21.7501H16.2185C16.7354 21.7501 17.1559 22.1707 17.1559 22.6876C17.1559 22.9465 17.3658 23.1563 17.6247 23.1563H20.9996C21.1977 23.1563 21.3743 23.0319 21.441 22.8454L23.9722 15.7674C24.0236 15.6239 24.0019 15.4643 23.9141 15.3397C23.8262 15.215 23.6833 15.1409 23.5308 15.1409H22.2781C22.0544 13.5843 20.7344 12.378 19.1281 12.3309C20.0988 11.1507 20.1081 9.47059 19.2178 8.28556L23.4501 4.04504C24.1828 3.31291 24.1836 2.12629 23.4504 1.3937ZM21.3275 15.1409H2.64182C2.63085 15.0637 2.62495 14.9855 2.62495 14.9065C2.62495 14.0019 3.36092 13.2659 4.26554 13.2659C4.45412 13.2659 4.63871 13.2975 4.81406 13.3598C5.1247 13.4701 5.45108 13.233 5.43946 12.9016C5.39024 11.5164 6.48822 10.4534 7.7811 10.4534C9.088 10.4534 10.1248 11.5161 10.1248 12.7972C10.1248 13.056 10.3347 13.2659 10.5936 13.2659C10.8524 13.2659 11.0623 13.056 11.0623 12.7972C11.0623 12.4897 11.0202 12.1894 10.9377 11.8997C11.0963 11.8645 11.2609 11.852 11.429 11.8647C11.8659 11.8996 12.2633 12.1036 12.548 12.4391C12.7204 12.6422 13.0274 12.6609 13.2232 12.4803C13.6571 12.08 14.2214 11.8596 14.8122 11.8596C15.8346 11.8596 16.7056 12.5182 17.0243 13.427C17.1256 13.7158 17.4728 13.8319 17.7272 13.6615C18.1216 13.3978 18.575 13.2658 19.0309 13.2658C20.1628 13.2659 21.1097 14.0724 21.3275 15.1409ZM22.787 3.38229L18.2468 7.93143C18.0641 8.11452 18.0642 8.41104 18.2471 8.59399C19.163 9.50982 19.1632 10.9923 18.247 11.9084L17.6304 12.5253C17.3027 11.9777 16.8204 11.5351 16.249 11.2551L16.9212 10.5829C17.1042 10.3998 17.1042 10.103 16.9212 9.91992C16.7381 9.73688 16.4414 9.73688 16.2582 9.91992L15.2286 10.9496C15.0906 10.9321 14.9514 10.9222 14.8122 10.9222C14.1359 10.9222 13.4843 11.1286 12.937 11.5103C12.7639 11.3669 12.5739 11.248 12.3714 11.1553L14.9327 8.59395C15.1158 8.4109 15.1158 8.1141 14.9327 7.93105C14.7497 7.74801 14.4529 7.74801 14.2698 7.93105L11.2782 10.9227C11.0301 10.9245 10.7831 10.9619 10.5468 11.0334C10.2857 10.6258 9.93605 10.2793 9.52782 10.0211L12.9439 6.60545C13.8597 5.68925 15.3421 5.68911 16.2581 6.60545C16.4412 6.78873 16.7383 6.78854 16.9213 6.60522L21.4619 2.05626C21.8232 1.69463 22.4165 1.6854 22.7873 2.05655C23.1512 2.42001 23.1566 3.01301 22.787 3.38229Z" fill="black"/>
<path d="M11.9998 21.7501C12.2587 21.7501 12.4686 21.5402 12.4686 21.2813C12.4686 21.0224 12.2587 20.8126 11.9998 20.8126C11.741 20.8126 11.5311 21.0224 11.5311 21.2813C11.5311 21.5402 11.741 21.7501 11.9998 21.7501Z" fill="black"/>
</g>
<defs>
<clipPath id="clip0_1_169">
<rect width="24" height="24" fill="white"/>
</clipPath>
</defs>
</svg>
